<?xml version="1.0" encoding="UTF-8" standalone="no"?>
<!DOCTYPE svg PUBLIC "-//W3C//DTD SVG 1.1//EN" "http://www.w3.org/Graphics/SVG/1.1/DTD/svg11.dtd">
<svg width="100%" height="100%" viewBox="0 0 200 200" version="1.1" xmlns="http://www.w3.org/2000/svg" xmlns:xlink="http://www.w3.org/1999/xlink" xml:space="preserve" xmlns:serif="http://www.serif.com/" style="fill-rule:evenodd;clip-rule:evenodd;stroke-miterlimit:10;">
    <path d="M98.81,7.82C48.69,7.82 7.82,48.69 7.82,99.11C7.82,149.23 48.39,192.18 98.81,192.18C149.22,192.18 192.18,151.31 192.18,100.59C192.18,50.47 151.61,7.82 98.81,7.82Z" style="fill:rgb(83,137,80);fill-rule:nonzero;stroke:black;stroke-width:4px;"/>
    <path d="M183.5,100.3C183.5,137.73 158.71,170.22 126.22,178.01L127.43,162.69L72.32,162.69L73.53,177.71C41.04,169.92 15.66,138.04 15.66,100.3C15.66,66.64 38.83,35.06 72.79,22.54L71.89,37.26L127.3,37.26L126.39,21.03C159.24,32.04 183.5,63.02 183.5,100.3Z" style="fill:rgb(241,241,211);fill-rule:nonzero;stroke:black;stroke-width:4px;"/>
    <g transform="matrix(0.989701,0,0,0.989701,-54.814157,16.336856)">
        <path d="M121.4,59.4L121.4,71.22L118.68,71.22L118.68,61.86L116.27,62.46L116.27,60.35L121.4,59.4Z" style="fill-rule:nonzero;"/>
    </g>
    <g transform="matrix(1,0,0,1,-42.496667,0.3)">
        <path d="M121.4,59.4L121.4,71.22L118.68,71.22L118.68,61.86L116.27,62.46L116.27,60.35L121.4,59.4Z" style="fill-rule:nonzero;"/>
    </g>
    <g transform="matrix(1,0,0,1,-36.93,0.3)">
        <path d="M121.4,59.4L121.4,71.22L118.68,71.22L118.68,61.86L116.27,62.46L116.27,60.35L121.4,59.4Z" style="fill-rule:nonzero;"/>
    </g>
    <path d="M127.6,31.12L135.15,33.84L143.62,60.91L127.6,48.09L127.6,31.12Z" style="fill:rgb(67,124,73);fill-rule:nonzero;stroke:black;stroke-width:4px;"/>
    <path d="M72.22,30.82L64.37,33.84L55.01,61.82L72.22,48.09L72.22,30.82Z" style="fill:rgb(67,124,73);fill-rule:nonzero;stroke:black;stroke-width:4px;"/>
    <path d="M127.9,167.1L134.25,164.98L143.92,138.81L127.9,150.42L127.9,167.1Z" style="fill:rgb(67,124,73);fill-rule:nonzero;stroke:black;stroke-width:4px;"/>
    <path d="M72.09,167.1L63.92,164.68L55.16,138.21L71.79,151.03L72.09,167.1Z" style="fill:rgb(67,124,73);fill-rule:nonzero;stroke:black;stroke-width:4px;"/>
    <path d="M163.9,91.25L158.06,91.25L158.06,108.72L163.9,108.72C166.32,108.72 167.22,107.21 167.22,105.09L167.22,94.68C167.22,92.56 166.02,91.25 163.9,91.25Z" style="fill:rgb(67,124,73);fill-rule:nonzero;stroke:black;stroke-width:4px;"/>
    <path d="M99.11,41.71C67.23,41.71 41.26,68.88 40.66,99.26C40.06,129.03 65.43,157.41 98.81,157.41C131.89,157.41 157.27,129.33 156.36,98.95C155.46,69.18 131.9,41.71 99.11,41.71ZM99.41,150.11C72.64,150.11 49.18,126.65 49.18,100.18C49.18,73.11 70.24,49.35 99.71,49.35C126.78,49.35 148.75,72.8 148.75,99.28C148.75,125.75 126.18,150.11 99.41,150.11Z" style="fill:rgb(67,124,73);fill-rule:nonzero;stroke:black;stroke-width:4px;"/>
    <path d="M99.71,104C102.59,104 103.69,101.43 103.17,98.01L123.62,78.87L127.93,72.83L120.41,78.57L99.71,99.12L86.88,88.31L79.34,85.59L85.07,91.63L96.19,99.15C95.69,101.34 96.75,104 99.71,104Z" style="fill:rgb(67,124,73);fill-rule:nonzero;stroke:black;stroke-width:3px;"/>
    <path d="M66.07,81.31C66.07,76.77 68.49,75.37 71.21,75.37C74.23,75.37 76.34,77.48 76.34,81.31C76.34,85.54 74.23,87.35 71.21,87.35C68.49,87.35 66.07,85.54 66.07,81.31ZM73.92,81.31C73.92,78.59 72.72,77.38 71.21,77.38C69.66,77.38 68.49,78.69 68.49,81.31C68.49,84.03 69.65,85.24 71.21,85.24C72.77,85.24 73.92,83.93 73.92,81.31Z" style="fill-rule:nonzero;"/>
    <path d="M63.51,119C62.3,118.4 61.1,117.5 61.1,117.2C61.1,115.09 62.61,113.88 65.02,113.88C67.74,113.88 69.25,115.09 69.55,116.9C69.55,117.8 68.95,118.7 67.74,119.31C69.25,119.91 69.85,120.81 69.85,122.02C69.85,124.44 68.34,125.64 65.62,125.64C62.91,125.64 60.79,124.74 60.79,122.32C60.79,120.81 61.7,119.61 63.51,119ZM65.32,123.53C66.83,123.53 67.43,122.92 67.43,121.72C67.43,121.12 66.83,120.51 65.62,120.21C64.11,120.51 63.21,121.12 63.21,122.02C63.21,122.92 64.11,123.53 65.32,123.53ZM66.23,118.4C67.13,117.8 67.43,117.5 67.43,116.9C67.43,115.99 66.53,115.69 65.62,115.69C64.72,115.69 63.81,116.29 63.81,117.2C63.81,117.8 64.42,118.1 65.93,118.7L66.23,118.4Z" style="fill-rule:nonzero;"/>
    <path d="M85.07,128.7L85.07,130.51L79.93,139.87L77.22,139.87L81.75,130.81L76.31,130.81L76.31,128.7L85.07,128.7Z" style="fill-rule:nonzero;"/>
    <path d="M103.8,135L102.59,136.51C101.69,135.91 100.79,135.61 99.88,135.61C97.77,135.61 96.87,137.11 96.87,138.93C97.47,138.02 98.37,137.72 99.58,137.72C102.3,137.72 103.81,139.23 103.81,141.34C103.81,143.76 102.3,145.26 99.58,145.26C96.26,145.26 94.75,143.15 94.75,139.63C94.75,135.7 96.86,133.59 99.88,133.59C101.39,133.59 102.9,134.2 103.8,135ZM99.58,143.15C100.79,143.15 101.69,142.25 101.69,141.04C101.69,139.83 100.79,139.23 99.58,139.23C98.37,139.23 97.47,139.83 97.47,141.04C97.47,142.25 98.37,143.15 99.58,143.15Z" style="fill-rule:nonzero;"/>
    <path d="M123.6,128.7L123.6,131.12L117.86,131.12L117.86,133.83C118.47,133.53 119.07,133.53 119.67,133.53C122.39,133.53 123.9,134.74 123.9,136.85C123.9,139.57 121.79,140.47 119.07,140.47C117.26,140.47 115.75,139.87 114.55,138.97L115.76,137.16C116.66,138.06 117.87,138.36 119.07,138.36C120.58,138.36 121.48,137.76 121.48,136.55C121.48,135.34 120.58,134.74 118.77,134.74C117.56,134.74 116.66,135.04 115.75,135.34L115.75,128.7L123.6,128.7Z" style="fill-rule:nonzero;"/>
    <path d="M136.7,113.6L136.7,121.14L138.51,121.14L138.51,123.25L136.7,123.25L136.7,125.67L134.29,125.67L134.29,123.25L128.55,123.25L128.55,121.44L134.29,113.6L136.7,113.6ZM134.28,121.14L134.28,116.61L130.97,121.14L134.28,121.14Z" style="fill-rule:nonzero;"/>
    <path d="M54.43,104.3L55.94,102.79C56.84,103.39 57.75,103.69 58.65,103.69C60.46,103.69 61.36,102.49 61.36,100.38C60.76,101.28 59.86,101.58 58.65,101.58C56.24,101.58 54.12,100.08 54.12,97.66C54.12,95.24 55.63,94.04 58.35,94.04C61.37,94.04 63.48,95.85 63.48,99.68C63.48,103.81 61.67,106.23 58.35,106.23C57.15,106.22 55.64,105.62 54.43,104.3ZM58.66,96.15C57.45,96.15 56.55,96.75 56.55,97.96C56.55,99.17 57.45,99.77 58.66,99.77C59.87,99.77 60.77,99.17 60.77,97.96C60.77,96.75 59.86,96.15 58.66,96.15Z" style="fill-rule:nonzero;"/>
    <path d="M129.8,84.58L134.94,80.05C135.84,79.15 136.15,78.54 136.15,77.94C136.15,77.04 135.55,76.43 134.34,76.43C133.13,76.43 132.23,77.33 131.62,78.24L130.11,76.73C131.32,75.22 132.52,74.62 134.34,74.62C137.06,74.62 138.57,75.83 138.57,78.24C138.57,79.45 137.67,80.96 136.16,82.17L133.74,84.58L138.57,84.58L138.57,86.4L129.91,86.4L129.91,84.58L129.8,84.58Z" style="fill-rule:nonzero;"/>
    <path d="M144.2,94.51L144.2,95.72L140.58,98.74C143.6,98.74 144.81,99.95 144.81,102.06C144.81,104.47 143.3,105.98 140.28,105.98C138.47,105.98 136.97,105.38 135.46,104.17L136.97,102.36C138.18,103.57 139.08,103.87 140.29,103.87C141.8,103.87 142.7,103.27 142.7,102.06C142.7,100.85 141.8,100.25 139.69,100.25L138.18,100.25L138.18,99.04L141.5,96.32L136.36,96.32L136.36,94.51L144.2,94.51Z" style="fill-rule:nonzero;"/>
    <path d="M98.43,64.28L102.96,59.75C103.86,58.85 104.17,58.24 104.17,57.64C104.17,56.74 103.57,56.13 102.36,56.13C101.15,56.13 100.25,57.03 99.64,57.94L98.13,56.43C99.34,54.92 100.55,54.32 102.36,54.32C105.08,54.32 106.59,55.53 106.59,57.94C106.59,59.15 105.99,60.66 104.48,62.17L102.06,64.58L106.59,64.58L106.59,66.4L98.43,66.4L98.43,64.28Z" style="fill-rule:nonzero;"/>
    <path d="M121.4,59.4L121.4,71.22L118.68,71.22L118.68,61.86L116.27,62.46L116.27,60.35L121.4,59.4Z" style="fill-rule:nonzero;"/>
    <g transform="matrix(1,0,0,1,-24.48,-4.7)">
        <path d="M121.4,59.4L121.4,71.22L118.68,71.22L118.68,61.86L116.27,62.46L116.27,60.35L121.4,59.4Z" style="fill-rule:nonzero;"/>
    </g>
</svg>
