<svg xmlns="http://www.w3.org/2000/svg" width="200" height="200" fill="none" viewBox="0 0 200 200">
<!-- SVG created with Arrow, by QuiverAI (https://quiver.ai) -->
  <path d="m194 5.14c-14.99-0.22-31.45 2.78-43.83 6-7.48 2.12-9.94 3.55-12.28 6.05-3.56-1.17-8.58-0.43-12.8 0.5l-2.82-2.63c-1.22-0.72-3.2-0.18-4.34 0.06l-10.96 1.18c-16.05 0.24-47.94 25-65.26 44.83-15 17.56-27.72 36.14-28.79 48.34l-2.13 14.8c-0.08 1.84 1.32 3.35 2.53 4.7-2.04 7.65-2 11.19-1.66 17.43-2.54 7.46-0.95 19.76 1.61 33.51l4.64 20.09h17.83c-3.8-11.04-3.62-21.78-3.19-37.3l2.38-3.78c1.25-5.85 2.98-10.89 5.88-15.17 6.6-1.34 9.11-1.65 15.13-6.06 21.68-14.83 47.05-39.23 60.87-55.01 6.34-7.32 14.9-17.59 17.53-22.38 1.62-3.15 2.89-7.01 3.51-13.39 5.23-3.15 9.64-4.72 16.63-6.74 3.26-2.1 6.61-6.06 7.83-8.98 8.66-5.08 20.9-8.93 31.69-10.02v-16.03z" fill="#0B110B"/>
  <path d="m194 7.19c-13.87-0.2-26.63 1.91-40.06 5.51-7.14 1.91-10.88 3.27-15.15 7.38 6.13 0.08 17.78 0.2 22.46 8.23 8.98-4.55 20.32-7.88 32.75-8.86v-12.26z" fill="#5B9853" stroke="#09150E" stroke-miterlimit="10" stroke-width=".75"/>
  <path d="m136 18.91c-3.34-1-7.11-0.75-9.18-0.19l0.89 1.74 8.29-1.55z" fill="#5B9853" stroke="#09150E" stroke-miterlimit="10" stroke-width=".75"/>
  <path d="m15.18 145.4c-2.96 6.6-1 18.34 1.01 31.24l3.9 23.33h12.63c-3.56-10.58-3.81-20.73-2.93-36.07l-3.47 1.24c-4.84-3.95-8.44-10.8-8.61-20.43l-2.53 0.69z" fill="#5B9853" stroke="#09150E" stroke-miterlimit="10" stroke-width=".75"/>
  <path d="m14.86 131.9 1.17 0.5-1.79 10.81-0.93-0.3 1.55-11.01z" fill="#5B9853" stroke="#09150E" stroke-miterlimit="10" stroke-width=".75"/>
  <path d="m119.8 16.74 3.15 1.17c0.72 1.37 0.21 2.93-1.74 5.61-4.16 5.94-8.11 10.91-12.06 15.29l9.99-11.6c9.74-4.03 28.56-7.35 36.93-2 1.93 1.39 3.19 3.21 3.33 6.45-1.1 3.2-4.59 6.23-6.33 6.85-6.79 1.3-13.97 4.61-19.93 9.4-12.94 9.96-25.89 22.21-36.54 33.21-0.88-0.97-0.49-1.77-0.74-2.89-0.89-1.75-2.42-2.29-3.45-2.29-0.99-2.03-3.24-3.65-5.64-2.82-1.74-1.98-3.83-2.42-5.93-1.49l33.44-36.55c3.7-4.69 8.43-10.4 9.23-14.91l-1.64-3.26c-0.67-0.65-1.56-0.46-2.07-0.17z" fill="url(#paint0_linear_1108_6384)" stroke="#09150E" stroke-miterlimit="10" stroke-width="1.5"/>
  <path d="m107.7 17.31 10.78-0.6c-1.19 4.86-7.6 13.18-14.21 20.9l-35.89 39.45c-13.46 14.59-36.81 39.89-51.61 49.12l-3.64-2.17c0.93-4.52 1.22-8.05 1.84-11.71 0.93 0.72 2.3 0.21 3.96-0.68 10.16-6.78 33.89-31.44 47.71-46.81l36.83-41.16c2.24-2.89 4.03-4.87 4.23-6.34z" fill="url(#paint1_linear_1108_6384)" stroke="#09150E" stroke-miterlimit="10" stroke-width="1.5"/>
  <path d="m135.7 47.83c-0.43 5.03-2.75 10.02-6.7 14.99l-8.87 10.77c1.74-3.47 2.67-6.35 2.53-9.69l8.79-11.19 4.25-4.88z" fill="url(#paint2_linear_1108_6384)" stroke="#09150E" stroke-miterlimit="10" stroke-width="1.5"/>
  <path d="m119.6 25.71c7.32-2.89 22.69-6.3 31.8-3.49 4.58 1.44 6.6 3.77 7.78 7.07-1.25-1.98-3.58-3.62-6.78-4.44-8.23-2.34-21.39 1.29-30.28 6.55-7.03 4.21-10.98 7.55-15.2 10.72l12.68-16.41z" fill="url(#paint3_linear_1108_6384)" stroke="#09150E" stroke-miterlimit="10" stroke-width=".75"/>
  <path d="m15.11 113.1c0.6 0.67 1.9 0.81 3.5 0.06l-0.41 6.78-4.68 3.67 1.59-10.51z" fill="url(#paint4_linear_1108_6384)" stroke="#09150E" stroke-miterlimit="10" stroke-width=".75"/>
  <path d="m14.76 125.6 2.95 1.69 2.82-1.2-2.82 2.62-2.95-2.62v-0.49z" fill="url(#paint5_linear_1108_6384)" stroke="#09150E" stroke-miterlimit="10" stroke-width=".75"/>
  <path d="m20.41 128 5.91-4c-3.67 5.8-7.21 14.95-6.75 28.42 0.72 4.28 3.54 9.32 7.14 12.01l2.46-1.31 3.34-4.68c2.04-9.87 7.2-19.36 16.22-29.47 8.68-8.7 18.66-18.37 28.33-27.89l-1.64-0.51c-2.27-0.75-3.2-2.5-3.48-3.87-2.2-0.79-4.33-3.54-4.19-6.6l-0.65-1.5 0.93-2.56c0.28-1.24 0.08-2.98 0.59-4.23-14.66 15.24-34.51 35.95-40.51 41.51-3.34 3.2-4.2 3.64-7.7 4.68z" fill="url(#paint6_linear_1108_6384)" stroke="#09150E" stroke-miterlimit="10" stroke-width="1.5"/>
  <path d="m43.71 139.9c4.09-0.6 7.18-1.74 10.99-4.7 3.6-2.56 6.69-4.95 9.03-7.29l-4.52 0.71-9.08 6.3-6.42 4.98z" fill="url(#paint7_linear_1108_6384)" stroke="#09150E" stroke-miterlimit="10" stroke-width="1.5"/>
  <path d="m61.18 126.2 6.27 0.44 21.69-21.53-27.96 21.09z" fill="url(#paint8_linear_1108_6384)" stroke="#09150E" stroke-miterlimit="10" stroke-width=".75"/>
  <path d="m105.2 17.91c-10.12-0.6-37.33 17.66-57.47 40.3-13.75 15.62-27.68 34.13-32.16 48.86-0.54 2.1-0.59 3.2 0.13 3.34 1.85 0.2 9.97-7.76 17.29-14.8l33.69-36.2 37.11-38.23c1.63-2.05 2.28-3.13 1.41-3.27z" fill="#F1F5F0" fill-opacity=".8" stroke="#09150E" stroke-miterlimit="10" stroke-width=".75"/>
  <path d="m37.19 80.08c-1.25-0.62-0.07-4.29 3.6-9.47 3.02-3.96 5.22-4.44 6.22-3.58 1.1 0.93-0.08 3.72-2.28 6.81-3.67 4.9-6.2 6.81-7.54 6.24z" fill="#F1F5F0" fill-opacity=".8"/>
  <path d="m105.1 19.48c-11.38 7.32-26.38 14.98-34.92 25.75 4.45-1.82 7.72-3.57 11.59-4.57 2.27-3.47 5.36-4.85 8.18-5.51l-5.63 7.11 4.81-3.6-7.08 7.05-65.97 62.1 62.36-63.7 26.66-24.63z" fill="#F1F5F0" fill-opacity=".8"/>
  <path d="m34.04 92.89 4.88-7.58 2.82-0.28 29.32-31.92 8.89-9.9 1.76 1.25-9.7 11.45-29.85 30.5-0.49 1.91-7.63 4.57z" fill="#9BB791" stroke="#09150E" stroke-miterlimit="10" stroke-width=".75"/>
  <path d="m60.91 64.02 2.2-2.56c1.63-1.91 4.65-0.8 4.71 1.47 0.08 2.14-3.73 6.16-5.77 6.3-2.63 0.07-3.24-2.49-1.14-5.21z" fill="#202921"/>
  <path d="m107.4 24.78 6.27-1.75-10.2 10.88 3.93-9.13z" fill="#202921"/>
  <path d="m124.3 20.61 2.44 1.1-2.75 1.08 0.31-2.18z" fill="#202921"/>
  <path d="m103.8 49.11 11.49 11.5 13.86-12.8-10.61-11.25c-5.42 3.27-10.46 7.48-14.74 12.55z" fill="url(#paint9_linear_1108_6384)" stroke="#918F88" stroke-miterlimit="10" stroke-width=".5"/>
  <path d="m99.11 53.91 10.61 11.86 3.47-3.47-10.61-11.25-3.47 2.86z" fill="#F1F0E2" fill-opacity=".8"/>
  <path d="m123.7 63.22 9.33-13.11-10.05 11.41-0.29 4.25 1.01-2.55z" fill="url(#paint10_linear_1108_6384)" stroke="#09150E" stroke-miterlimit="10" stroke-width=".75"/>
  <path d="m97.3 87.01 23.98-26.4v3.3l-23.3 26.2-0.68-3.1z" fill="url(#paint11_linear_1108_6384)" stroke="#09150E" stroke-miterlimit="10" stroke-width=".75"/>
  <path d="m66.11 112-9.96-10.89 1.76-1.75 10.02 10.27-1.82 2.37z" fill="url(#paint12_linear_1108_6384)" stroke="#918F88" stroke-miterlimit="10" stroke-width=".5"/>
  <path d="m62.23 116.1-11.75-12.2 1.97-1.57 11.82 12.19-2.04 1.58z" fill="url(#paint13_linear_1108_6384)" stroke="#918F88" stroke-miterlimit="10" stroke-width=".5"/>
  <path d="m58.12 119.9-11.76-12.2 1.68-1.47 11.82 12.19-1.74 1.48z" fill="url(#paint14_linear_1108_6384)" stroke="#918F88" stroke-miterlimit="10" stroke-width=".5"/>
  <path d="m193.9 13.76-6.69 0.87-16.65 6.13-8.92 5.75" stroke="#09150E" stroke-miterlimit="10" stroke-width=".75"/>
  <path d="m193.9 11.6-9.59 0.93-14.63 3.88-11.57 7.49" stroke="#09150E" stroke-miterlimit="10" stroke-width=".75"/>
  <path d="m193.8 9.53-10.61 0.59-13.06 3-16.38 5.4" stroke="#09150E" stroke-miterlimit="10" stroke-width=".75"/>
  <path d="m19.11 162.4 0.98 1.19 9.15 7.48" stroke="#09150E" stroke-miterlimit="10" stroke-width=".75"/>
  <path d="m19.46 165.2 0.95 1.45 8.76 7.3" stroke="#09150E" stroke-miterlimit="10" stroke-width=".75"/>
  <path d="m19.82 168 0.9 1.6 8.3 7.11" stroke="#09150E" stroke-miterlimit="10" stroke-width=".75"/>
  <path d="m20.17 171 1.04 1.73 7.58 6.85" stroke="#09150E" stroke-miterlimit="10" stroke-width=".75"/>
  <path d="m20.68 174.3 1.03 1.81 6.97 6.52" stroke="#09150E" stroke-miterlimit="10" stroke-width=".75"/>
  <path d="m21.21 177.7 1.17 1.89 6.53 6.05" stroke="#09150E" stroke-miterlimit="10" stroke-width=".75"/>
  <path d="m21.88 181.2 1.31 2.05 6.05 5.49" stroke="#09150E" stroke-miterlimit="10" stroke-width=".75"/>
  <path d="m22.65 184.9 1.49 2.29 5.72 5.2" stroke="#09150E" stroke-miterlimit="10" stroke-width=".75"/>
  <path d="m23.54 188.9 1.74 2.49 5.35 4.68" stroke="#09150E" stroke-miterlimit="10" stroke-width=".75"/>
  <path d="m24.62 193.3 2.09 2.4 2.08 1.76" stroke="#09150E" stroke-miterlimit="10" stroke-width=".75"/>
  <path d="m68.96 85.89c0.79-7.18 5.08-9.7 6.18-9.88 1.03-1.88 2.49-3.29 3.98-3.79 0.93-0.34 1.59 0.21 2.21 0.78 1.53-0.85 3.41-1.85 5.08 0.42 0.93 0.82 1.75 0.35 2.61 0.28 1.44-0.14 2.69 1.39 3.2 2.7 1.53 0.14 2.8 0.65 3.52 2.47 0.42 1.07 0 2.04 0.48 2.95 0.82 1.04 1.69 1.69 1.55 3.51-0.14 1.34-1 2.27-0.86 3.34 0.41 1.08 0.86 2.29 0.07 3.85-0.62 1.14-1.72 1.87-1.93 2.94-0.14 1.56-0.68 2.7-2.49 3.63-0.72 1.69-1.9 2.62-4.17 2.34-1.47 1.53-3.44 1.74-5.64 0.28-2.69 0.93-4.03-0.35-5.63-1.98-2.65 0.21-4.39-1.23-4.97-3.57-2.34-0.82-4.22-2.64-4.43-6.11-0.21-1.63 0.89-2.38 1.24-4.16z" fill="#1A1E1D" stroke="#09150E" stroke-miterlimit="10" stroke-width=".75"/>
  <path d="m83.07 98.5c6.84 0 11-5.89 11-11.38 0-6.06-5.39-11.01-11-11.01-6.46 0-11.06 5.78-11.06 11.7 0 6.1 5.25 10.69 11.06 10.69z" fill="url(#paint15_linear_1108_6384)" stroke="#09150E" stroke-miterlimit="10" stroke-width=".75"/>
  <path d="m74.06 89.42 5.95-5.8-4.8 5.3-1.15 0.5z" fill="#F1F0E2" fill-opacity=".8"/>
  <path d="m74.91 87.12 8.23-8.41 5.79-0.59-13.72 12.5-0.3-3.5z" fill="#F1F0E2" fill-opacity=".8"/>
  <path d="m76.01 91.91 15.74-9.87 0.6 2.34-13.72 9.37-2.62-1.84z" fill="#F1F0E2" fill-opacity=".8"/>
  <path d="m79.41 94.38 12.62-8.13-0.6 2.67-9.22 6.7-2.8-1.24z" fill="#F1F0E2" fill-opacity=".8"/>
  <path d="m83.69 96.09 7.02-4.84-1.1 2.19-3.47 2.65h-2.45z" fill="#F1F0E2" fill-opacity=".8"/>
  <defs>
    <linearGradient id="paint0_linear_1108_6384" x1="101.2" x2="130.9" y1="16.41" y2="60.78" gradientUnits="userSpaceOnUse">
      <stop stop-color="#F1F0E2" offset="0"/>
      <stop stop-color="#918F88" offset="1"/>
    </linearGradient>
    <linearGradient id="paint1_linear_1108_6384" x1="65.82" x2="65.82" y1="16.71" y2="126.8" gradientUnits="userSpaceOnUse">
      <stop stop-color="#F1F0E2" offset="0"/>
      <stop stop-color="#918F88" offset="1"/>
    </linearGradient>
    <linearGradient id="paint2_linear_1108_6384" x1="127.9" x2="127.9" y1="47.83" y2="73.59" gradientUnits="userSpaceOnUse">
      <stop stop-color="#F1F0E2" offset="0"/>
      <stop stop-color="#918F88" offset="1"/>
    </linearGradient>
    <linearGradient id="paint3_linear_1108_6384" x1="132.8" x2="132.8" y1="21.09" y2="39.02" gradientUnits="userSpaceOnUse">
      <stop stop-color="#F1F0E2" offset="0"/>
      <stop stop-color="#918F88" offset="1"/>
    </linearGradient>
    <linearGradient id="paint4_linear_1108_6384" x1="16.07" x2="16.07" y1="112.7" y2="119.9" gradientUnits="userSpaceOnUse">
      <stop stop-color="#F1F0E2" offset="0"/>
      <stop stop-color="#918F88" offset="1"/>
    </linearGradient>
    <linearGradient id="paint5_linear_1108_6384" x1="16.94" x2="16.94" y1="125.6" y2="128.7" gradientUnits="userSpaceOnUse">
      <stop stop-color="#F1F0E2" offset="0"/>
      <stop stop-color="#918F88" offset="1"/>
    </linearGradient>
    <linearGradient id="paint6_linear_1108_6384" x1="39.96" x2="39.96" y1="81.82" y2="164.4" gradientUnits="userSpaceOnUse">
      <stop stop-color="#F1F0E2" offset="0"/>
      <stop stop-color="#918F88" offset="1"/>
    </linearGradient>
    <linearGradient id="paint7_linear_1108_6384" x1="53.72" x2="53.72" y1="127.3" y2="139.9" gradientUnits="userSpaceOnUse">
      <stop stop-color="#F1F0E2" offset="0"/>
      <stop stop-color="#918F88" offset="1"/>
    </linearGradient>
    <linearGradient id="paint8_linear_1108_6384" x1="75.16" x2="75.16" y1="104.7" y2="126.7" gradientUnits="userSpaceOnUse">
      <stop stop-color="#F1F0E2" offset="0"/>
      <stop stop-color="#918F88" offset="1"/>
    </linearGradient>
    <linearGradient id="paint9_linear_1108_6384" x1="116.5" x2="116.5" y1="36.56" y2="60.61" gradientUnits="userSpaceOnUse">
      <stop stop-color="#F1F0E2" offset="0"/>
      <stop stop-color="#918F88" offset="1"/>
    </linearGradient>
    <linearGradient id="paint10_linear_1108_6384" x1="127.8" x2="127.8" y1="50.11" y2="65.77" gradientUnits="userSpaceOnUse">
      <stop stop-color="#F1F0E2" offset="0"/>
      <stop stop-color="#918F88" offset="1"/>
    </linearGradient>
    <linearGradient id="paint11_linear_1108_6384" x1="109.3" x2="109.3" y1="60.61" y2="90.11" gradientUnits="userSpaceOnUse">
      <stop stop-color="#F1F0E2" offset="0"/>
      <stop stop-color="#918F88" offset="1"/>
    </linearGradient>
    <linearGradient id="paint12_linear_1108_6384" x1="61.57" x2="61.57" y1="99.41" y2="112" gradientUnits="userSpaceOnUse">
      <stop stop-color="#F1F0E2" offset="0"/>
      <stop stop-color="#918F88" offset="1"/>
    </linearGradient>
    <linearGradient id="paint13_linear_1108_6384" x1="57.31" x2="57.31" y1="102.3" y2="116.1" gradientUnits="userSpaceOnUse">
      <stop stop-color="#F1F0E2" offset="0"/>
      <stop stop-color="#918F88" offset="1"/>
    </linearGradient>
    <linearGradient id="paint14_linear_1108_6384" x1="53.11" x2="53.11" y1="106.2" y2="119.9" gradientUnits="userSpaceOnUse">
      <stop stop-color="#F1F0E2" offset="0"/>
      <stop stop-color="#918F88" offset="1"/>
    </linearGradient>
    <linearGradient id="paint15_linear_1108_6384" x1="83.04" x2="83.04" y1="76.11" y2="98.5" gradientUnits="userSpaceOnUse">
      <stop stop-color="#F1F0E2" offset="0"/>
      <stop stop-color="#918F88" offset="1"/>
    </linearGradient>
  </defs>
</svg>