<svg xmlns="http://www.w3.org/2000/svg" width="200" height="200" fill="none" viewBox="0 0 200 200">
<!-- SVG created with Arrow, by QuiverAI (https://quiver.ai) -->
  <path d="m68.82 14.67 62.47 0.13" stroke="#1D1D1B" stroke-linecap="round" stroke-width="2"/>
  <path d="m69.29 186.2 63.7-0.13" stroke="#1D1D1B" stroke-linecap="round" stroke-width="2"/>
  <path d="m73.11 11.36 0.65 65.81-0.34 1.26c-2.45 2.36-3.14 6.78-0.66 9.29l1.52 1.41 53.41-55.36-0.1-23.06c-0.03-2.51-0.96-2.64-2.5-2.45-16.29 1.4-32.68 1.28-49.76-0.25-1.84-0.23-2.29 0.58-2.22 3.35z" fill="#59824B" stroke="#1D1D1B" stroke-linecap="round" stroke-width="2.5"/>
  <path d="m127.1 191.6c0.57-1.09 1.29-2.46 1.29-7.9l-0.59-66.51 16.92-16.94c2.51-2.52 3.09-6.36 1.03-10.4l44.04-42.74c2.42-1.87 3.99-3.93 1.26-6.66-11.88-10.8-22.95-21.61-33.37-33.23-1.53-1.84-2.79-1.55-4.02-0.33l-46.11 44.05-4.44-0.54c-3.2-0.38-4.89 0.54-6.38 2.3l-22.96 25.06c-2.05 2.19-2.7 7.1-0.55 9.26l1.39 1.45-9.95 8.71-2.55-2.84c-1.5-1.42-2.75-0.74-3.89 0.56l-7 7.48c-1.16 1.5-0.72 2.86 0 4.29l-2.92-0.65c-1.12-0.21-2.1 0.76-3.17 1.95l-6.22 6.62c-1.6 1.74-1.31 3.53 0.55 5.52l-29.95 30.08c-2.14 2.15-2.4 4.15-0.48 6.2 11.23 9.95 22.46 20.46 33.95 35.5 1.46 1.93 3 1.35 4.4-0.26l25.2-26.52 0.18 23.92c0 3.65 0.73 5.01 3.28 4.73 16-1.87 28.68-1.58 49.77 0.14 0.53 0.05 0.96-0.59 1.29-2.3z" fill="#466A3D" stroke="#12100B" stroke-linecap="round" stroke-width="2.5"/>
  <path d="m119.7 20.77 1.26-2.93 1.86 4.58v10.39l-1.86 5-1.26-2.52v-14.52z" fill="#59824B" stroke="#1D1D1B" stroke-linecap="round" stroke-width="1.5"/>
  <path d="m78.25 19.91 1.26 2.93v8.05l-1.26 3.07-1.12-3.07v-7.4l1.12-3.58z" fill="#59824B" stroke="#1D1D1B" stroke-linecap="round" stroke-width="1.5"/>
  <path d="m78.11 33.67 1.26 2.93v3.21l-1.26 3.07-0.84-3.07v-3.21l0.84-2.93z" fill="#59824B" stroke="#1D1D1B" stroke-linecap="round" stroke-width="1.5"/>
  <path d="m78.8 43.92 0.66 2.93-0.85 3.16-0.74-3.16 0.93-2.93z" fill="#59824B" stroke="#1D1D1B" stroke-linecap="round" stroke-width="1.5"/>
  <path d="m78.8 52.11 0.85 3.21-0.85 3.78-0.93-3.68 0.93-3.31z" fill="#59824B" stroke="#1D1D1B" stroke-linecap="round" stroke-width="1.5"/>
  <path d="m79.22 59.51 0.52 3.73-1.26 3.16-0.75-3.16 1.49-3.73z" fill="#59824B" stroke="#1D1D1B" stroke-linecap="round" stroke-width="1.5"/>
  <path d="m121.5 129.1 1.12 3.93v4.63l-1.49 3.21-0.85-3.21 1.22-8.56z" fill="#466A3D" stroke="#12100B" stroke-linecap="round" stroke-width="1.5"/>
  <path d="m122 141.9 1.21 3.93v4.63l-1.77 3.21-1.12-3.21 1.68-8.56z" fill="#466A3D" stroke="#12100B" stroke-linecap="round" stroke-width="1.5"/>
  <path d="m122 155 1.21 3.93v4.64l-1.77 3.21-1.12-3.21 1.68-8.57z" fill="#466A3D" stroke="#12100B" stroke-linecap="round" stroke-width="1.5"/>
  <path d="m122 166.5 1.21 3.93v4.64l-1.77 4.29-1.12-3.83 1.68-9.03z" fill="#466A3D" stroke="#12100B" stroke-linecap="round" stroke-width="2"/>
  <path d="m79.37 164.4 0.84 4.29-1.08 7.21-0.61 3.03-0.98-3.03 0.71-7.72 1.12-3.78z" fill="#59824B" stroke="#1D1D1B" stroke-linecap="round" stroke-width="1.5"/>
  <path d="m148.7 8.31 1.73 1.84" stroke="#12100B" stroke-linecap="round" stroke-width="2.5"/>
  <path d="m190.7 48.26 0.43 2.52" stroke="#12100B" stroke-linecap="round" stroke-width="2.5"/>
  <path d="m8.66 146.5 1.4 1.84" stroke="#12100B" stroke-linecap="round" stroke-width="2.5"/>
  <path d="m50.81 189.1 1.84 2.09" stroke="#12100B" stroke-linecap="round" stroke-width="2.5"/>
  <path d="m75.18 10.68 2.83 0.23 2.55-0.1-0.85 0.55 3.02-0.75 2.15 0.41 2.24-0.41 0.66 0.92 1.73-0.51 1.95 0.92 2.24-0.72 1.36 0.86 1.29-1.27 1.36 1.3 1.3-1.09 1.6 1.09 2.14-1.3 1.4 0.93 1.83-0.99 0.85 0.99 2.24-0.93 1.84 0.72 1.86-0.92 2.05 0.61 1.96-0.68 2.35 0.27 2.92-0.61 2.14 0.41 0.72 2.45-0.14 4.24-1.36-2.29-5.5 1.16-2.05 2.45-2.45-1.32-2.24 1.32-2.55-1.8-2.55 0.48-1.63-1.13-2.07 0.86-2.25-1.53-2.24 1.12-2.24-0.51-2.25 0.71-2.07-0.92-2.55 0.21-1.86-1.4-3.09 0.3-1.83-1.29-3.51 0.14-2.44-1.44-0.86-1.74z" fill="#466A3D"/>
  <path d="m76.91 14.36 3.24 0.55 1.84 2.12-0.93 2.2 1.67 1.09-0.6 5.35-1.07 2.26-0.91-3.02-0.85-3.87-1.57-0.41-0.82-2.42v-3.85z" fill="#466A3D"/>
  <path d="m85.84 17.71 2.65 0.91 1.5-1.18 1.02 3.02-1.92 1.46 1.92 1.19-1.4 2.7-1.5-0.93-1.2-2.66 1.58-1.76-2.65-2.75z" fill="#466A3D"/>
  <path d="m91.74 20.46 2.34 1.39 3.46-0.54-2.48 2.45-0.95 2.26-2.37 1.91-2.13-1.23 1.3-2.26 0.83-3.98z" fill="#466A3D"/>
  <path d="m99.72 24.91 6.86 2.13-4.77 5.64-2.59 3.41-4.16 1.83-2.93 1.89-1.83 3.07-1.95-1.77 1.26-2.16-2.49-1.03 0.85-1.83 4.64-0.38 3.5-4.68 3.61-6.12z" fill="#466A3D"/>
  <path d="m100.1 37.41 3.9 1.54 3.2-1.54 3.09 1.54-3.09 1.47-3.31-0.96-3.79-2.05z" fill="#466A3D"/>
  <path d="m116.3 20.46 2.92-3.64v5.81l-1.33 3.18-1.59-2.05v-3.3z" fill="#466A3D"/>
  <path d="m118.7 36.6 0.47 3.21-4.77 5.81-4.35 3.22h-2.83l4.54-4.13 5.43-5.41 1.51-2.7z" fill="#466A3D"/>
  <path d="m149.7 16.72 1.02 0.72-1.57 3.19-5.05 4.52-1.96 0.8-4.19 5.56-3.64 2.16-5.18 6.14-3.06 1.69-3.91 4.94-3.46 1.48-3.9 6.05-2.93-0.27 1.06-2.59 3.33-1.1 2.44-4.39 4.05-1.96 4.01-5.64 4.09-1.69 4.31-5.61 3.8-2.01 3.7-4.95 3.13-1.33 3.91-5.71z" stroke="#12100B" stroke-linecap="round" stroke-width="1.5"/>
  <path d="m154.8 8.82 7 7.49 9.95 9.4 5.46 5.01-4.41-2.9-5.33-4.91-5.01-3.74 5.05 5.91 10.05 7.15 4.05 2.55 7.57 6.85-2.92 5.29-3.7 2.29-2.75-4.11-4.34 6.28-4.05 1.35-4.31 6.24-3.91 1.63-2.92 4.58-4.05 2.45-3.5 6.15-4.05 2.32-3.5 5.17-1.33 3.64-5.79-7.78-10.28-13.01 2.82-2.93 6.15 5.72 2.55 0.31-3.4-4.11-1.8-1.99 4.15 1.79 4.67 2.33 2.26-2.13-2.93-2.95-5.14-4.49-0.93-11.61 3.53-2.63 0.4-3.1 10.09-7.3-1.1-2.32 5.5-2.49 5.72 3.39 7.88 7.12 0.34 1.88-7.44-5.25-2.04 0.75-3.36-3.29-2.02 1.24 3.33 3.24 2.41 0.62 1.13 3.31 2.99-2.09 2.93 1.6 2.14 0.21 1.6 1.96-3.13-1.31-3.06-0.51 2.69 4.12-3.51-2.03-2.17-0.76 1.33 2.79 3.64 1.7 1.18 3.15-3.3-2.65-2.68-1.75-1.87 0.64 1.97 1.83 2.75 1.1 1.77 2.56-2.35-1.05-3.67-2.03-2.1 0.52-1.6-1.82-2.08 1.3-1.29-1.8 2.07-1.7-2.79-2.79-2.73 1.49-2.24-2.03 1.96-1.45-1.6-1.7-1.96 1.29 1.36 1.86 2.3 0.54-0.82 2.32-3.51-1.56-2.16-1.58 1.86-2.87 2.55-0.81 2.93-2.56 1.5 0.75 0.45-2.46 2.46-0.52 2.65 1.68 1.53-2.59-3.74-3.18-3.7-1.96 6.36-2.86 3.33-4.01-5.99-5.79v-3.6z" fill="#466A3D"/>
  <path d="m137.1 53.9c-2.37 0.41-3.67 2.4-1.61 5.13 2.24 2.66 3.54 3.58 5.24 3.68 2.34-0.1 3.33-2.3 3.22-3.75-0.27-1.53-3.94-5.2-6.85-5.06z" fill="#12100B"/>
  <path d="m105 51.66c-4.31-1.6-6.86-0.24-9 2.07l-21.9 24.13c-1.9 2.16-1.93 5.9-0.2 7.3l22.95-23.54c1.8-1.77 3.7-1.56 5.5 0l12.67 13.31 2.03-1.6c2.96-2.12 4.99 0 6.42 1.74 1.26 1.66 1.33 3.88-0.67 5.65l12.31 14.35c2.06 2.66 1.51 4.89-0.19 6.15l-19.34 21.91c-1.09 1.16-1.98 2.28-0.66 3.07 1.26 0.72 2.79-0.64 3.78-1.9l24.81-25.29c2.55-2.66 2.51-5.77 0.34-10.15-8.39-14.53-20.24-27.74-38.85-37.2z" fill="#ECE5D6" stroke="#12100B" stroke-linecap="round" stroke-width="1.5"/>
  <path d="m97.07 63.11-32.27 33.15 1.23 2.86 31.6-34.08c1.12-1.36 2.22-1.12 3.11-0.27l12.29 13.18 1.33-1.84-14.1-13.57c-1.05-0.92-2.25-0.51-3.19 0.57z" fill="#264226" stroke="#12100B" stroke-linecap="round" stroke-width="1.5"/>
  <path d="m121.1 74.49c-1.6-1.02-2.8 0.27-3.99 1.73l-7.11 7.91c-1.09 1.23 0.3 3.52 1.8 4.07 1.3 0.54 2.66-0.38 3.72-1.84l7.11-7.92c1.09-1.33 0.27-2.96-1.53-3.95z" fill="#ECE5D6" stroke="#12100B" stroke-linecap="round" stroke-width="2.5"/>
  <path d="m51.22 103.7c-0.31-1.16 0.41-2.08 1.26-3.01l6.22-6.78c1.05-1.2 1.91-0.97 2.79 0.14 9.95 12.67 23.02 26.25 38.43 43.67 1.26 1.43 0.61 1.84-0.2 2.83l-4.73 6.08c-1.16 1.46-2.28 0.98-3.98-0.48-13.99-12.42-26.92-25.51-38.9-39.74-0.59-0.71-0.89-1.56-0.89-2.71z" fill="#466A3D" stroke="#12100B" stroke-linecap="round" stroke-width="2"/>
  <path d="m39.05 116.2c-0.28-1.09 0.37-1.87 1.22-2.72l6.22-6.45c0.92-1.02 1.84-0.96 2.79 0.47 9.18 11.9 21.69 25.61 38.83 42.4 1.03 0.96 1.37 1.78 0.31 2.77l-5.01 5.88c-0.99 1.16-1.77 0.31-3.1-0.92-14.21-13.28-26.75-25.77-39.29-37.61-1.16-1.23-1.8-2.26-1.97-3.82z" fill="#466A3D" stroke="#12100B" stroke-linecap="round" stroke-width="2"/>
  <path d="m39.73 123.5 1.83 1.77c-3.8 6.89-1.73 21.18 3.42 30.01 7.81 3.66 17.83 4.01 28.1 2.43l1.13-0.61-2.07-0.96c-8.01 1.2-16.02 0.07-25.03-2.89-4.05-6.35-5.98-17.01-3.16-25.12l-4.22-4.63z" fill="#264226" stroke="#12100B" stroke-linecap="round" stroke-width="2"/>
  <path d="m48.33 134.6-0.62 3.61 2 3.8v6.85l2.51 1.83 5.63 1.09h5.36l3.8-1.37-18.68-19.33v3.52z" fill="#466A3D" stroke="#12100B" stroke-linecap="round" stroke-width="1.5"/>
  <path d="m51.22 150.2c0.89-0.92 2.69-1.4 4.52-0.72 1.6 0.55 2.52 1 2.52 1.41-1.3 0.55-4.49 0.55-7.04-0.69z" fill="#77A56A" stroke="#12100B" stroke-linecap="round" stroke-width=".5"/>
  <path d="m60.18 151.1c0.89-0.65 1.98-0.93 3.64-0.72 1.4 0.2 2.76 0.51 3.04 1.06-1.43 0.48-4.25 0.62-6.68-0.34z" fill="#77A56A" stroke="#12100B" stroke-linecap="round" stroke-width=".5"/>
  <path d="m18.6 149.4 1.63-2.95 4.18-3.58 2.55-1 2.83-4.77 3.33-1.43 2.24-3.81 2.92-1.77 1.64 0.14-2.83 4.29-3.46 2.16-3.5 5.4-3.34 2.02-2.82 4.45c-1.96 1.77-3.79 2.12-5.37 0.85z" stroke="#12100B" stroke-linecap="round" stroke-width="1.5"/>
  <path d="m33.49 145.1 3.6-4.9 0.74 3.21-2.82 4.48 1.7 1.91-1.16 1.5 2.76 1.87-1.22 1.85 1.96 2.2-1.96 2.52 1.63 1.96-1.5 2.29 2.51 3.46v3.58l-4.72-5.16 1.13-1.88-3.02-3.02 1.49-2.39-2.55-2.19-1.63 2.19-2.14-3.56 1.5-3.26-2.48-1.55 1.96-3.02 1.16 1.62 3.06-3.71z" fill="#466A3D"/>
  <path d="m48.74 180.2 2.07-4.11 3.5-2.42 2.34 0.52-2.24 3.61-5.67 2.4z" fill="#77A56A" stroke="#12100B" stroke-linecap="round" stroke-width=".75"/>
  <path d="m56.72 171.9 2.45-3.18 2.92-1.12-1.63 3.29-3.74 1.01z" fill="#77A56A" stroke="#12100B" stroke-linecap="round" stroke-width=".75"/>
  <path d="m62.94 165 2.55-2.93 2.45-0.31-1.6 2.69-3.4 0.55z" fill="#77A56A" stroke="#12100B" stroke-linecap="round" stroke-width=".75"/>
  <path d="m74.88 191.7 2.82-0.82 4.32-0.41 3.67-0.54 4.23-0.14 4.05-0.55h3.13l3.91 0.28 4.05 0.06 3.97 0.35 3.7 0.06 3.43 0.69 4.15-0.48 3.7 0.89 2.45-1.1-1.3-1.77-3.33-0.27-3.8-1.06-2.96-1.83-2.34-1.96-2.38-2.89 3.26-2.4 3.1-2.79v-3.99l-2.55 0.79-2.75 2.79-2.07-0.92 2.55-2.93 3.43-2.76-1.16-1.7-6.03 2.23 2.18-3.41 5.01-3.73 0.84-2.86-3.73 1-5.21 3.68 1.33-3 5.26-4.5 1.01-2.92-8.81 6.61 2.44-4.17 4.76-5.19-0.41-2.23-9.09 8.58 3.88-5.8 4.13-4.39-0.55-2.45-10.06 9.94 6-8.59 1.7-2.07-0.85-1.93-10.79 10.59 5.79-8.66 3.16-3.41-0.41-1.77-5.59 4.59 3.13-5.32 2.93-2.13 1.6-2.92-4.76 3.57-4.01 1.96 2.17-5.18 4.73-5.38 23.5-24.85 1.5-3.81-3.8-1.46-2.3 5.27-3.77 2.52-3.23 5.19-4.34 3.19-4.61 5.61-4.15 2.79-4.55 5.55-2.93 1.35" stroke="#264226" stroke-linecap="round" stroke-width="1.5"/>
  <path d="m113.3 85.81 4.91-6.48" stroke="#6F6259" stroke-linecap="round" stroke-width="1.5"/>
  <path d="m70.11 101.4 3.56-6.01 3.46-2.46 2.82-4.82 4.86-3.38 2.97-4.77 4.49-3.25 2.86-4.64 3.64-1.76 2.86-3.11" stroke="#12100B" stroke-linecap="round" stroke-width="1.5"/>
  <path d="m96.86 93.79c-2.14 0.27-2.24 3.39-0.41 5.51 2.03 2.26 3.13 3.39 4.73 3.25 2.24-0.27 2.73-2.11 2.45-3.64-0.72-2-4.22-5.46-6.77-5.12z" fill="#12100B"/>
  <path d="m84.47 106.9c-2.14 0.27-2.24 3.19-0.41 5.45 2.03 2.26 3.47 3.05 5.07 2.91 2.14-0.34 2.5-1.84 2.08-3.5-0.85-2.16-3.78-5.24-6.74-4.86z" fill="#12100B"/>
  <path d="m138.3 88.54 1.26 2.59-0.48 2.39" stroke="#B9B0A6" stroke-linecap="round" stroke-width="1.5"/>
</svg>